<svg width="25" height="25" viewBox="0 0 25 25" fill="none" xmlns="http://www.w3.org/2000/svg">
<path d="M17.1906 4.68742V3.64575H15.1073V5.72909H4.68854V3.64575H2.60521V4.68742H1.5625V23.4426H2.60417V24.4843H16.149V23.4426H15.1073V22.401H16.149V21.3593H15.1073V19.2749H16.149V18.2333H15.1073V17.1916H16.149V16.1499H17.1906V15.1072H18.2323V4.68846L17.1906 4.68742ZM13.024 19.2749H8.85625V17.1916H13.0229L13.024 19.2749ZM13.024 22.3999H3.64583V21.3583H13.024V22.3999ZM3.64583 8.85721H4.6875V9.89888H5.72917V8.85721H6.77187V7.81554H7.81354V8.85721H6.77187V9.89888H5.72917L5.73021 10.9405H4.68854L4.6875 9.89888H3.64687L3.64583 8.85721ZM3.64583 13.0239H4.6875V14.0655H5.72917V13.0239H6.77187V11.9822H7.81354V13.0239H6.77187V14.0655H5.72917L5.73021 15.1083H4.68854V14.0666H3.64687L3.64583 13.0239ZM4.6875 17.1916V18.2333H5.72917V17.1916H6.77187V16.1499H7.81354V17.1916H6.77187V18.2333H5.72917L5.73021 19.2749H4.68854L4.6875 18.2333H3.64687V17.1916H4.6875ZM16.149 14.0666H15.1073V15.1083H8.85625V13.0249H16.149V14.0666ZM16.149 10.9416H8.85625V8.85513H16.149V10.9416Z" fill="black"/>
<path d="M24.4843 18.2323V17.1906H23.4427V16.149H22.401V17.1906H21.3593V16.149H19.275V17.1906H18.2333V16.149H17.1916V17.1906H16.15V18.2323H17.1916V19.274H16.15V21.3583H17.1916V22.4H16.15V23.4417H17.1916V24.4833H18.2333V23.4417H19.275V24.4833H21.3583V23.4417H22.4V24.4833H23.4416V23.4417H24.4843V22.4H23.4427V21.3583H24.4843V19.275H23.4427V18.2333L24.4843 18.2323ZM21.3593 21.3583H19.275V19.275H21.3583L21.3593 21.3583ZM14.0656 2.60417V4.6875H5.72913V2.60417H6.77079V1.5625H13.0218V2.60417H14.0656Z" fill="black"/>
</svg>
