<svg width="22" height="20" viewBox="0 0 22 20" fill="none" xmlns="http://www.w3.org/2000/svg">
<path d="M18.1133 12.8275C18.4925 11.9067 18.6983 10.9208 18.6983 9.83749C18.6983 9.05749 18.5792 8.30999 18.3733 7.61665C17.6692 7.77915 16.9325 7.86582 16.1633 7.86582C14.5881 7.86751 13.0356 7.49047 11.6367 6.76648C10.2377 6.04249 9.0333 4.99277 8.125 3.70582C7.15429 6.05745 5.32103 7.94885 3.00083 8.99249C2.9575 9.26332 2.9575 9.55582 2.9575 9.83749C2.9575 10.8718 3.16121 11.8959 3.55701 12.8514C3.95281 13.807 4.53294 14.6752 5.26428 15.4065C6.74128 16.8835 8.74453 17.7133 10.8333 17.7133C11.9708 17.7133 13.065 17.4642 14.0508 17.02C14.6683 18.2008 14.95 18.7858 14.9283 18.7858C13.1517 19.3817 11.7758 19.6742 10.8333 19.6742C8.21167 19.6742 5.70917 18.645 3.8675 16.7925C2.7463 15.6766 1.91346 14.3046 1.44083 12.795H0V7.86582H1.18083C1.53859 6.12438 2.36112 4.51226 3.56112 3.20054C4.76113 1.88882 6.29385 0.926428 7.99666 0.415475C9.69946 -0.0954777 11.5088 -0.135927 13.2328 0.298419C14.9567 0.732765 16.5309 1.6257 17.7883 2.88249C19.1531 4.2427 20.0842 5.97679 20.4642 7.86582H21.6667V12.795H21.6017L17.745 16.3375L12.0033 15.6875V13.8783H17.2358L18.1133 12.8275ZM7.87583 9.58832C8.20083 9.58832 8.515 9.71832 8.7425 9.95665C8.97113 10.1872 9.09942 10.4987 9.09942 10.8233C9.09942 11.148 8.97113 11.4595 8.7425 11.69C8.515 11.9175 8.20083 12.0475 7.87583 12.0475C7.19333 12.0475 6.64083 11.5058 6.64083 10.8233C6.64083 10.1408 7.19333 9.58832 7.87583 9.58832ZM13.78 9.58832C14.4625 9.58832 15.0042 10.1408 15.0042 10.8233C15.0042 11.5058 14.4625 12.0475 13.78 12.0475C13.0975 12.0475 12.545 11.5058 12.545 10.8233C12.545 10.4958 12.6751 10.1817 12.9067 9.95004C13.1383 9.71844 13.4525 9.58832 13.78 9.58832Z" fill="black"/>
</svg>
